<?xml version="1.0" encoding="UTF-8"?>
<svg width="37px" height="37px" viewBox="0 0 37 37" version="1.1" xmlns="http://www.w3.org/2000/svg" xmlns:xlink="http://www.w3.org/1999/xlink">
    <!-- Generator: sketchtool 53.2 (72643) - https://sketchapp.com -->
    <title>11E07A9F-5D3A-4501-9915-44002D384F7C</title>
    <desc>Created with sketchtool.</desc>
    <g id="design" stroke="none" stroke-width="1" fill="none" fill-rule="evenodd">
        <g id="110-property-detailed" transform="translate(-1240.000000, -338.000000)">
            <g id="images" transform="translate(0.000000, 80.000000)">
                <g id="Group" transform="translate(1210.000000, 0.000000)">
                    <g id="Arrow" transform="translate(31.000000, 259.000000)">
                        <path d="M17.5,35 C27.1649831,35 35,27.1649831 35,17.5 C35,7.83501688 27.1649831,0 17.5,0 C7.83501688,0 0,7.83501688 0,17.5 C0,27.1649831 7.83501688,35 17.5,35 Z" id="Oval" stroke="#FFFFFF" stroke-width="2" transform="translate(17.500000, 17.500000) scale(-1, 1) translate(-17.500000, -17.500000) "></path>
                        <path d="M21.3056057,26.3459412 L13.392047,18.2438235 C12.9905298,17.833 12.9905298,17.167 13.392047,16.7561765 L21.3056057,8.65405882 C21.5061059,8.44864706 21.8316605,8.44864706 22.0321607,8.65405882 L22.7587157,9.39788235 C22.959216,9.60329412 22.959216,9.93629412 22.7587157,10.1417059 L15.9344728,17.1278235 C15.7339726,17.3332353 15.7339726,17.6667647 15.9344728,17.8716471 L22.7587157,24.8582941 C22.959216,25.0637059 22.959216,25.3967059 22.7587157,25.6021176 L22.0321607,26.3459412 C21.8316605,26.5513529 21.5061059,26.5513529 21.3056057,26.3459412" id="Icon" fill="#FFFFFF" transform="translate(18.000000, 17.500000) scale(-1, 1) translate(-18.000000, -17.500000) "></path>
                    </g>
                </g>
            </g>
        </g>
    </g>
</svg>