<?xml version="1.0" encoding="UTF-8"?>
<svg width="37px" height="37px" viewBox="0 0 37 37" version="1.1" xmlns="http://www.w3.org/2000/svg" xmlns:xlink="http://www.w3.org/1999/xlink">
    <!-- Generator: sketchtool 53.2 (72643) - https://sketchapp.com -->
    <title>0AF6853C-E1D3-4850-B717-ED8B6D976A9F</title>
    <desc>Created with sketchtool.</desc>
    <g id="design" stroke="none" stroke-width="1" fill="none" fill-rule="evenodd">
        <g id="110-property-detailed" transform="translate(-35.000000, -338.000000)">
            <g id="images" transform="translate(0.000000, 80.000000)">
                <g id="Group-32">
                    <g id="Arrow" transform="translate(36.000000, 259.000000)">
                        <path d="M17.5,35 C27.1649831,35 35,27.1649831 35,17.5 C35,7.83501688 27.1649831,0 17.5,0 C7.83501688,0 0,7.83501688 0,17.5 C0,27.1649831 7.83501688,35 17.5,35 Z" id="Oval" stroke="#FFFFFF" stroke-width="2"></path>
                        <path d="M19.3056057,26.3459412 L11.392047,18.2438235 C10.9905298,17.833 10.9905298,17.167 11.392047,16.7561765 L19.3056057,8.65405882 C19.5061059,8.44864706 19.8316605,8.44864706 20.0321607,8.65405882 L20.7587157,9.39788235 C20.959216,9.60329412 20.959216,9.93629412 20.7587157,10.1417059 L13.9344728,17.1278235 C13.7339726,17.3332353 13.7339726,17.6667647 13.9344728,17.8716471 L20.7587157,24.8582941 C20.959216,25.0637059 20.959216,25.3967059 20.7587157,25.6021176 L20.0321607,26.3459412 C19.8316605,26.5513529 19.5061059,26.5513529 19.3056057,26.3459412" id="Icon" fill="#FFFFFF"></path>
                    </g>
                </g>
            </g>
        </g>
    </g>
</svg>