<?xml version="1.0"?>
<svg xmlns="http://www.w3.org/2000/svg" id="_30-hair_dryer" data-name="30-hair dryer" viewBox="0 0 512 512" width="512" height="512"><g id="filled"><path d="M504.485,55.515C480.92,31.949,440.383,20,384,20c-49.912,0-128.179,11.893-191.067,21.448C155.671,47.11,123.491,52,112,52,69.629,52,24.924,7.952,24.478,7.507,17.386-.062,3.654,5.636,4,16V208c-.331,10.354,13.346,16.057,20.478,8.493C24.924,216.048,69.629,172,112,172c22.826,0,77.879,7.911,131.12,15.562,21.872,3.143,43.29,6.22,62.933,8.847C317.107,210.456,325.74,226.8,332.488,244H320a12,12,0,0,0-12,12v48a12,12,0,0,0,12,12h30.942a470.831,470.831,0,0,1,5.075,83.37A12,12,0,0,0,368,412h10.629c4.8,6.364,2.83,10.767-1.722,20.893-7.036,15.655-17.671,39.314,14.608,71.592a12,12,0,0,0,16.97-16.97c-20.57-20.571-16.006-30.727-9.687-44.783,3.6-8.013,8.391-18.689,5.765-30.732H416a12,12,0,0,0,11.97-11.145L442.419,198.61c26.866-5.645,47.648-15.706,62.066-30.125A12,12,0,0,0,508,160V64A12,12,0,0,0,504.485,55.515ZM384,132a20,20,0,1,1,20-20A20.023,20.023,0,0,1,384,132ZM28,41.943c17.346,13.109,43.8,29.4,72,33.225v73.664c-28.2,3.824-54.654,20.116-72,33.225Zm96,106.5V75.277c16.271-1.552,41.925-5.449,72.538-10.1C253.7,56.49,323.712,45.857,372,44.223V69.677a43.988,43.988,0,0,0,0,84.646V179.55c-28.52-1.815-77.685-8.878-125.467-15.744C197.915,156.82,151.633,150.171,124,148.439ZM332,292V268h8.616c2.32,8,4.3,16.048,5.992,24Zm72.827,96H380.27a507.061,507.061,0,0,0-4.576-68.951c-6.548-48.112-19.231-87.867-37.793-118.632C357.034,202.625,373.02,204,384,204a332.653,332.653,0,0,0,34.09-1.651ZM484,154.748c-13.325,11.305-38.973,23.343-88,25.041V154.323a43.988,43.988,0,0,0,0-84.646V44.211c49.027,1.7,74.675,13.736,88,25.041Z"/></g></svg>
