<svg id="Capa_1" enable-background="new 0 0 512 512" height="512" viewBox="0 0 512 512" width="512" xmlns="http://www.w3.org/2000/svg"><g><path d="m181.45 180.667h149.1c8.703 0 15.784-7.08 15.784-15.783v-24.85c0-1.754-.615-3.453-1.738-4.801l-39.679-47.614v-72.119c0-8.547-6.953-15.5-15.5-15.5h-66.833c-8.547 0-15.5 6.953-15.5 15.5v72.118l-39.679 47.614c-1.123 1.348-1.738 3.047-1.738 4.801v24.85c-.001 8.703 7.08 15.784 15.783 15.784zm149.1-15h-149.1c-.432 0-.784-.352-.784-.783v-17.35h150.667v17.35c0 .431-.351.783-.783.783zm-112.454-67.833h75.809l28.916 34.7h-133.642zm3.987-82.334c0-.276.224-.5.5-.5h66.833c.276 0 .5.224.5.5v67.334h-67.833z"/><path d="m314.267 381.033h-116.534c-8.547 0-15.5 6.953-15.5 15.5v66.834c0 8.547 6.953 15.5 15.5 15.5h116.533c8.547 0 15.5-6.953 15.5-15.5v-66.834c.001-8.547-6.953-15.5-15.499-15.5zm.5 82.334c0 .276-.224.5-.5.5h-116.534c-.276 0-.5-.224-.5-.5v-66.834c0-.276.224-.5.5-.5h116.533c.276 0 .5.224.5.5v66.834z"/><path d="m189.733 329.767h8.283c4.142 0 7.5-3.358 7.5-7.5s-3.358-7.5-7.5-7.5h-8.283c-4.142 0-7.5 3.358-7.5 7.5s3.358 7.5 7.5 7.5z"/><path d="m251.858 329.767h8.283c4.142 0 7.5-3.358 7.5-7.5s-3.358-7.5-7.5-7.5h-8.283c-4.142 0-7.5 3.358-7.5 7.5s3.358 7.5 7.5 7.5z"/><path d="m313.983 329.767h8.283c4.142 0 7.5-3.358 7.5-7.5s-3.358-7.5-7.5-7.5h-8.283c-4.142 0-7.5 3.358-7.5 7.5s3.358 7.5 7.5 7.5z"/><path d="m289.133 414.167h-66.267c-4.142 0-7.5 3.358-7.5 7.5s3.358 7.5 7.5 7.5h66.267c4.142 0 7.5-3.358 7.5-7.5 0-4.143-3.358-7.5-7.5-7.5z"/><path d="m90.333 314.767h-16.566c-4.142 0-7.5 3.358-7.5 7.5s3.358 7.5 7.5 7.5h16.567c4.142 0 7.5-3.358 7.5-7.5-.001-4.142-3.358-7.5-7.501-7.5z"/><path d="m33.133 413.383v33.133c0 4.142 3.358 7.5 7.5 7.5s7.5-3.358 7.5-7.5v-33.133c0-4.142-3.358-7.5-7.5-7.5s-7.5 3.358-7.5 7.5z"/><path d="m496.5 281.633h-398.667v-50.767c0-8.547-6.953-15.5-15.5-15.5h-17.133c-8.547 0-15.5 6.953-15.5 15.5v50.767h-34.2c-8.547 0-15.5 6.953-15.5 15.5v58.267 141.1c0 8.547 6.953 15.5 15.5 15.5h51.833c4.142 0 7.5-3.358 7.5-7.5s-3.358-7.5-7.5-7.5h-51.833c-.276 0-.5-.224-.5-.5v-133.6h134.1v134.1h-52.1c-4.142 0-7.5 3.358-7.5 7.5s3.358 7.5 7.5 7.5h399.5c8.547 0 15.5-6.953 15.5-15.5v-141.1-58.267c0-8.547-6.953-15.5-15.5-15.5zm.5 15.5v50.767h-134.1v-51.267h133.6c.276 0 .5.224.5.5zm-149.1 50.767h-183.8v-51.267h183.8zm-283.2-117.033c0-.276.224-.5.5-.5h17.133c.276 0 .5.224.5.5v50.767h-18.133zm-49.7 117.033v-50.767c0-.276.224-.5.5-.5h133.6v51.267zm149.1 15h183.8v134.1h-183.8zm332.9 133.6c0 .276-.224.5-.5.5h-133.6v-134.1h134.1z"/><path d="m421.666 329.767h16.567c4.142 0 7.5-3.358 7.5-7.5s-3.358-7.5-7.5-7.5h-16.567c-4.142 0-7.5 3.358-7.5 7.5s3.358 7.5 7.5 7.5z"/><path d="m388.533 454.017c4.142 0 7.5-3.358 7.5-7.5v-33.133c0-4.142-3.358-7.5-7.5-7.5s-7.5 3.358-7.5 7.5v33.133c0 4.142 3.358 7.5 7.5 7.5z"/><path d="m15.5 130.967h116.533c8.547 0 15.5-6.953 15.5-15.5v-99.967c0-8.547-6.953-15.5-15.5-15.5h-116.533c-8.547 0-15.5 6.953-15.5 15.5v99.967c0 8.547 6.953 15.5 15.5 15.5zm-.5-115.467c0-.276.224-.5.5-.5h116.533c.276 0 .5.224.5.5v99.967c0 .276-.224.5-.5.5h-116.533c-.276 0-.5-.224-.5-.5z"/><path d="m65.483 97.834h16.567c4.142 0 7.5-3.358 7.5-7.5s-3.358-7.5-7.5-7.5h-16.567c-4.142 0-7.5 3.358-7.5 7.5s3.358 7.5 7.5 7.5z"/><path d="m496.5 0h-116.533c-8.547 0-15.5 6.953-15.5 15.5v18.417c0 4.142 3.358 7.5 7.5 7.5s7.5-3.358 7.5-7.5v-18.417c0-.276.224-.5.5-.5h116.533c.276 0 .5.224.5.5v99.967c0 .276-.224.5-.5.5h-116.533c-.276 0-.5-.224-.5-.5v-51.55c0-4.142-3.358-7.5-7.5-7.5s-7.5 3.358-7.5 7.5v51.55c0 8.547 6.953 15.5 15.5 15.5h116.533c8.547 0 15.5-6.953 15.5-15.5v-99.967c0-8.547-6.953-15.5-15.5-15.5z"/><path d="m446.517 97.834c4.142 0 7.5-3.358 7.5-7.5s-3.358-7.5-7.5-7.5h-16.567c-4.142 0-7.5 3.358-7.5 7.5s3.358 7.5 7.5 7.5z"/><path d="m504.5 182.233h-132.533c-4.142 0-7.5 3.358-7.5 7.5s3.358 7.5 7.5 7.5h25.633v19.336c-9.608 3.16-16.567 12.212-16.567 22.863 0 13.27 10.796 24.067 24.067 24.067 13.27 0 24.066-10.796 24.066-24.067 0-10.652-6.959-19.704-16.566-22.863v-19.336h51.267v19.336c-9.608 3.16-16.567 12.212-16.567 22.863 0 13.27 10.796 24.067 24.067 24.067 13.27 0 24.066-10.796 24.066-24.067 0-10.652-6.959-19.704-16.566-22.863v-19.336h25.633c4.142 0 7.5-3.358 7.5-7.5s-3.358-7.5-7.5-7.5zm-99.4 66.267c-5 0-9.067-4.067-9.067-9.067 0-4.999 4.067-9.066 9.067-9.066 4.999 0 9.066 4.067 9.066 9.066 0 5-4.067 9.067-9.066 9.067zm66.267 0c-4.999 0-9.067-4.067-9.067-9.067 0-4.999 4.067-9.066 9.067-9.066 4.999 0 9.066 4.067 9.066 9.066 0 5-4.067 9.067-9.066 9.067z"/></g></svg>