<?xml version="1.0" encoding="UTF-8"?>
<svg width="20px" height="19px" viewBox="0 0 20 19" version="1.1" xmlns="http://www.w3.org/2000/svg" xmlns:xlink="http://www.w3.org/1999/xlink">
    <!-- Generator: sketchtool 53.2 (72643) - https://sketchapp.com -->
    <title>3B5295E7-E93F-466D-BB5E-B60F6C549D3F</title>
    <desc>Created with sketchtool.</desc>
    <g id="design" stroke="none" stroke-width="1" fill="none" fill-rule="evenodd">
        <g id="110-property-detailed" transform="translate(-684.000000, -2718.000000)">
            <g id="map" transform="translate(152.000000, 2406.000000)">
                <g id="metro" transform="translate(532.000000, 312.000000)">
                    <path d="M5.1277704,-2.07168062e-16 L14.8722296,2.07168062e-16 C16.6552671,-1.2037061e-16 17.3018396,0.185651222 17.9536914,0.534265408 C18.6055433,0.882879593 19.1171204,1.39445674 19.4657346,2.04630859 C19.8143488,2.69816044 20,3.34473292 20,5.1277704 L20,13.8722296 C20,15.6552671 19.8143488,16.3018396 19.4657346,16.9536914 C19.1171204,17.6055433 18.6055433,18.1171204 17.9536914,18.4657346 C17.3018396,18.8143488 16.6552671,19 14.8722296,19 L5.1277704,19 C3.34473292,19 2.69816044,18.8143488 2.04630859,18.4657346 C1.39445674,18.1171204 0.882879593,17.6055433 0.534265408,16.9536914 C0.185651222,16.3018396 8.02470732e-17,15.6552671 -1.38112041e-16,13.8722296 L1.38112041e-16,5.1277704 C-8.02470732e-17,3.34473292 0.185651222,2.69816044 0.534265408,2.04630859 C0.882879593,1.39445674 1.39445674,0.882879593 2.04630859,0.534265408 C2.69816044,0.185651222 3.34473292,1.2037061e-16 5.1277704,-2.07168062e-16 Z" id="Rectangle-20" fill="#E6474D"></path>
                    <text id="M" font-family="Effra-Heavy, Effra" font-size="13" font-weight="600" fill="#FFFFFF">
                        <tspan x="5" y="14">M</tspan>
                    </text>
                </g>
            </g>
        </g>
    </g>
</svg>